<svg width="122" height="53" viewBox="0 0 122 53" fill="none" xmlns="http://www.w3.org/2000/svg">
<path d="M44.5568 31V7.72727H59.1477V10.75H48.0682V17.8409H58.3864V20.8523H48.0682V27.9773H59.2841V31H44.5568ZM66.9631 7.72727V31H63.5653V7.72727H66.9631ZM71.5341 31V13.5455H74.9318V31H71.5341ZM73.25 10.8523C72.6591 10.8523 72.1515 10.6553 71.7273 10.2614C71.3106 9.85985 71.1023 9.38257 71.1023 8.82954C71.1023 8.26894 71.3106 7.79167 71.7273 7.39773C72.1515 6.99621 72.6591 6.79545 73.25 6.79545C73.8409 6.79545 74.3447 6.99621 74.7614 7.39773C75.1856 7.79167 75.3977 8.26894 75.3977 8.82954C75.3977 9.38257 75.1856 9.85985 74.7614 10.2614C74.3447 10.6553 73.8409 10.8523 73.25 10.8523ZM87.6506 13.5455V16.2727H78.1165V13.5455H87.6506ZM80.6733 9.36364H84.071V25.875C84.071 26.5341 84.1695 27.0303 84.3665 27.3636C84.5634 27.6894 84.8172 27.9129 85.1278 28.0341C85.446 28.1477 85.7907 28.2045 86.1619 28.2045C86.4347 28.2045 86.6733 28.1856 86.8778 28.1477C87.0824 28.1098 87.2415 28.0795 87.3551 28.0568L87.9688 30.8636C87.7718 30.9394 87.4915 31.0152 87.1278 31.0909C86.7642 31.1742 86.3097 31.2197 85.7642 31.2273C84.8703 31.2424 84.0369 31.0833 83.2642 30.75C82.4915 30.4167 81.8665 29.9015 81.3892 29.2045C80.9119 28.5076 80.6733 27.6326 80.6733 26.5795V9.36364ZM98.7443 31.3523C97.0246 31.3523 95.5436 30.9848 94.3011 30.25C93.0663 29.5076 92.1117 28.4659 91.4375 27.125C90.7708 25.7765 90.4375 24.197 90.4375 22.3864C90.4375 20.5985 90.7708 19.0227 91.4375 17.6591C92.1117 16.2955 93.0511 15.2311 94.2557 14.4659C95.4678 13.7008 96.8845 13.3182 98.5057 13.3182C99.4905 13.3182 100.445 13.4811 101.369 13.8068C102.294 14.1326 103.123 14.6439 103.858 15.3409C104.593 16.0379 105.172 16.9432 105.597 18.0568C106.021 19.1629 106.233 20.5076 106.233 22.0909V23.2955H92.358V20.75H102.903C102.903 19.8561 102.722 19.0644 102.358 18.375C101.994 17.678 101.483 17.1288 100.824 16.7273C100.172 16.3258 99.4072 16.125 98.5284 16.125C97.5739 16.125 96.7405 16.3598 96.0284 16.8295C95.3239 17.2917 94.7784 17.8977 94.392 18.6477C94.0133 19.3902 93.8239 20.197 93.8239 21.0682V23.0568C93.8239 24.2235 94.0284 25.2159 94.4375 26.0341C94.8542 26.8523 95.4337 27.4773 96.1761 27.9091C96.9186 28.3333 97.786 28.5455 98.7784 28.5455C99.4223 28.5455 100.009 28.4545 100.54 28.2727C101.07 28.0833 101.528 27.803 101.915 27.4318C102.301 27.0606 102.597 26.6023 102.801 26.0568L106.017 26.6364C105.759 27.5833 105.297 28.4129 104.631 29.125C103.972 29.8295 103.142 30.3788 102.142 30.7727C101.15 31.1591 100.017 31.3523 98.7443 31.3523Z" fill="black"/>
<path d="M32 19C32 27.2843 25.2843 34 17 34M32 19C32 10.7157 25.2843 4 17 4M32 19H2M17 34C8.71573 34 2 27.2843 2 19M17 34C19.7614 34 22 27.2843 22 19C22 10.7157 19.7614 4 17 4M17 34C14.2386 34 12 27.2843 12 19C12 10.7157 14.2386 4 17 4M2 19C2 10.7157 8.71573 4 17 4" stroke="#0D6EFD" stroke-width="3" stroke-linecap="round" stroke-linejoin="round"/>
</svg>
